<svg xmlns="http://www.w3.org/2000/svg" width="16" height="16" viewBox="0 0 16 16">
  <defs>
    <linearGradient id="grad" x1="0%" y1="0%" x2="100%" y2="100%">
      <stop offset="0%" style="stop-color:#3b82f6"/>
      <stop offset="100%" style="stop-color:#8b5cf6"/>
    </linearGradient>
  </defs>
  <rect width="16" height="16" rx="3" fill="url(#grad)"/>
  <path d="M8 3.5C5.8 3.5 4 5.3 4 7.5c0 1.4.7 2.6 1.8 3.3v1.7c0 .3.2.5.5.5h3.4c.3 0 .5-.2.5-.5v-1.7c1.1-.7 1.8-1.9 1.8-3.3 0-2.2-1.8-4-4-4zm0 1.5c1.4 0 2.5 1.1 2.5 2.5 0 .9-.5 1.7-1.2 2.2l-.3.2v1.6h-2v-1.6l-.3-.2c-.7-.5-1.2-1.3-1.2-2.2C5.5 6.1 6.6 5 8 5z" fill="white"/>
</svg>
